<svg width="450" height="450" viewBox="0 0 529 529" fill="none" xmlns="http://www.w3.org/2000/svg">
<path d="M260.255 268.432L261.609 269.24L327.448 316.432L308.417 328.443C300.719 333.297 290.891 333.188 283.307 328.162L235.073 296.229L260.255 268.432Z" fill="#F9C6B7"/>
<path d="M182.984 238.964C202.443 226.49 222.859 234.49 243.781 253.359L273.802 268.443L235.073 303.911L182.984 238.964Z" fill="#5959D8"/>
<path d="M352.89 133.333H356.583V185.177H352.89V133.333Z" stroke="#B4DAEF" stroke-width="0.801155" stroke-miterlimit="10" stroke-linecap="round" stroke-linejoin="round"/>
<path d="M174.943 408.547L176.406 416.771H301.052L271.396 368.104L174.943 408.547Z" fill="#231F20"/>
<path d="M73.3124 353.151L66.4062 396.917C64.3229 410.099 75.2708 421.807 88.5416 420.385C93.2395 419.885 98.3749 418.5 103.911 416.297L116.151 353.516L73.3124 353.151Z" fill="#F9C6B7"/>
<path d="M377.479 266.927C380.021 264.713 381.995 261.989 383.964 259.255C385.974 256.453 387.656 253.427 389.328 250.411C392.38 244.906 395.432 239.406 398.484 233.901C403.365 236.229 409.062 237.12 414.448 237.641C415.099 237.703 415.802 237.739 416.354 237.385C417.24 236.807 417.255 235.427 416.661 234.547C416.073 233.672 415.073 233.172 414.12 232.708C410.214 230.823 406.307 228.937 402.401 227.047C406.943 226.099 410.323 223.62 414.276 221.187C417.839 218.989 421.307 215.781 421.651 211.609C421.688 211.182 421.672 210.703 421.365 210.401C421.109 210.141 420.714 210.088 420.349 210.068C417.448 209.917 414.661 211.099 412.026 212.307C407.052 214.583 402.161 217.026 397.359 219.641C400.214 216.641 402.521 214.614 405.797 212.078C409.068 209.542 412.172 206.489 413.51 202.573C413.62 202.245 413.719 201.88 413.583 201.562C413.458 201.276 413.172 201.094 412.885 200.969C410.911 200.109 408.646 201.068 406.766 202.114C401.229 205.193 396.177 209.135 391.854 213.76C394.917 210.239 397.901 206.323 400.104 202.208C400.573 201.338 401.026 200.427 401.089 199.443C401.151 198.458 400.724 197.375 399.833 196.953C398.802 196.458 397.583 196.989 396.599 197.573C390.839 201 386.708 206.547 382.74 211.948L352.344 248.114L377.479 266.927Z" fill="#F9C6B7"/>
<path d="M135.401 262.385L114.396 270.526L115.443 339.297L162.411 388.651L174.844 415.12L275.422 368.521L243.932 317.115C238.573 298.443 235.797 291.698 224.807 274.62L182.984 238.964L169.818 246.287L135.401 262.385Z" fill="#5959D8"/>
<path d="M243.932 317.115C240.005 303.443 237.468 296.167 232.083 286.552C227.953 279.182 222.395 272.709 215.781 267.453L194.911 250.886" stroke="#231F20" stroke-width="0.801137" stroke-miterlimit="10" stroke-linecap="round" stroke-linejoin="round"/>
<path d="M114.396 270.526C94.9948 273.708 81.776 285.469 79.75 313.432L69.7969 356.995L117.375 357.51L125.245 334.417L114.396 270.526Z" fill="#5959D8"/>
<path d="M153.016 232.958C149.99 233.75 146.724 233.922 143.615 233.646C132.427 232.661 121.037 229.208 111.021 224.219C104.427 220.927 98.7709 215.844 95.3022 209.578C88.9949 198.161 91.6043 183.948 100.094 174.125C107.193 165.911 118.75 161.385 129.875 162.453C141.313 163.552 147.443 173.802 151.823 183.281C153.354 186.594 154.823 189.938 156.224 193.307C157.469 196.292 158.453 199.339 159.755 202.328C164.016 212.104 166.479 229.464 153.016 232.958Z" fill="#F9C6B7"/>
<path d="M114.161 223.938L135.401 262.385C161.766 269.479 175.865 266.307 169.818 246.286C164.906 243.568 160.693 235.974 156.635 227.255L114.161 223.938Z" fill="#F9C6B7"/>
<path d="M343.308 416.771H190.375C185.089 416.771 180.802 412.484 180.802 407.198V118.469C180.802 113.182 185.089 108.901 190.375 108.901H343.308C348.6 108.901 352.886 113.182 352.886 118.469V407.198C352.886 412.484 348.6 416.771 343.308 416.771Z" stroke="#B4DAEF" stroke-width="0.801143" stroke-miterlimit="10" stroke-linecap="round" stroke-linejoin="round"/>
<path d="M341.194 412.51H192.49C187.349 412.51 183.177 408.344 183.177 403.208V122.463C183.177 117.328 187.349 113.156 192.49 113.156H341.194C346.334 113.156 350.506 117.328 350.506 122.463V403.208C350.506 408.344 346.334 412.51 341.194 412.51Z" stroke="#B4DAEF" stroke-width="0.801129" stroke-miterlimit="10" stroke-linecap="round" stroke-linejoin="round"/>
<path d="M271.24 125.115C271.24 128.146 268.781 130.604 265.75 130.604C262.713 130.604 260.255 128.146 260.255 125.115C260.255 122.083 262.713 119.625 265.75 119.625C268.781 119.625 271.24 122.083 271.24 125.115Z" fill="#231F20"/>
<path d="M103.911 416.297L180.807 367.281L171.807 340.422L104.74 369.328L103.911 416.297Z" fill="#F9C6B7"/>
<path d="M295.188 298.255L353.172 248.255L377.479 266.927L327.448 316.432L295.188 298.255Z" fill="#F9C6B7"/>
<path d="M138.307 191.802L143.068 199.084C149.943 198.766 148.276 199.11 146.974 205.953" stroke="#231F20" stroke-width="0.801137" stroke-miterlimit="10" stroke-linecap="round" stroke-linejoin="round"/>
<path d="M140.14 211.776C144.343 215.13 147.932 214.422 151.125 211.042" stroke="#231F20" stroke-width="0.801137" stroke-miterlimit="10" stroke-linecap="round" stroke-linejoin="round"/>
<path d="M131.271 199.021C131.74 200.24 131.573 201.438 130.901 201.693C130.234 201.948 129.313 201.167 128.849 199.948C128.385 198.729 128.547 197.531 129.219 197.276C129.885 197.021 130.807 197.802 131.271 199.021Z" fill="#231F20"/>
<path d="M148.745 190.839C149.208 192.057 149.047 193.25 148.375 193.505C147.708 193.76 146.786 192.979 146.323 191.76C145.854 190.542 146.021 189.349 146.693 189.094C147.359 188.833 148.281 189.62 148.745 190.839Z" fill="#231F20"/>
<path d="M131.974 191.026C132.917 190.083 134.724 188.26 133.505 186.896C132.74 186.031 131.25 186.229 130.271 186.547C128.495 187.12 126.948 188.271 125.521 189.448C124.005 190.693 122.516 192.047 121.599 193.781C121.312 194.318 121.083 194.906 121.083 195.521C121.083 196.13 121.354 196.766 121.875 197.083C123.474 198.057 125.615 195.927 126.838 195.109C128.656 193.891 130.427 192.578 131.974 191.026Z" fill="#231F20"/>
<path d="M150.641 181.589C151.271 180.99 151.839 180.375 151.62 179.479C151.448 178.781 150.714 177.859 149.974 177.615C148.188 177.042 145.74 179.198 144.505 180.162C143.068 181.287 141.651 182.505 140.781 184.063C140.51 184.547 140.292 185.078 140.292 185.625C140.292 186.177 140.547 186.75 141.042 187.037C142.563 187.912 144.599 185.995 145.76 185.26C147.484 184.162 149.172 182.984 150.641 181.589Z" fill="#231F20"/>
<path d="M118.432 213.234C120.432 213.307 121.937 211.172 121.943 209.177C121.953 207.177 120.917 205.349 119.906 203.625C117.172 198.953 114.432 194.281 111.698 189.604C111.937 188.24 113.62 187.104 114.937 186.661C118.344 185.531 122.286 186.948 125.562 185.479C129.115 183.885 130.578 179.51 133.839 177.375C137.437 175.01 142.505 175.833 145.974 173.286C148.557 171.391 149.651 167.703 148.516 164.708C147.38 161.713 144.115 159.672 140.927 159.958C140.911 157.49 138.906 155.437 136.698 154.323C133.177 152.547 128.839 152.505 125.281 154.208C123.146 155.234 121.219 156.865 118.87 157.172C117.047 157.411 115.229 156.807 113.396 156.729C110.781 156.615 108.141 157.615 106.26 159.432C103.771 161.833 102.724 165.401 100.375 167.943C97.2604 171.318 92.1614 172.552 89.5573 176.338C87.4792 179.365 87.5781 183.724 89.7969 186.651C86.4219 188.099 85.0156 191.802 85.0989 195.474C85.1823 199.146 86.8854 202.599 88.9687 205.625C93.1667 211.708 96.3542 217.474 102.937 221.302C106.62 223.448 110.552 225.365 113.469 228.474C115.437 230.568 116.854 233.115 118.714 235.307C119.182 235.865 119.724 236.422 120.437 236.583C121.583 236.833 122.729 235.885 123.099 234.766C123.474 233.651 123.276 232.432 123.052 231.276C121.88 225.161 120.172 219.146 117.953 213.328" fill="#231F20"/>
<path d="M362.255 178.115H252.599C243.083 178.115 235.375 170.406 235.375 160.901V157.974C235.375 148.463 243.083 140.755 252.599 140.755H362.255C371.766 140.755 379.479 148.463 379.479 157.974V160.901C379.479 170.406 371.766 178.115 362.255 178.115Z" fill="#5959D8"/>
<path d="M204.844 196.203H184.74C175.016 196.203 167.135 188.318 167.135 178.599V176.443C167.135 166.724 175.016 158.844 184.74 158.844H204.844C214.568 158.844 222.453 166.724 222.453 176.443V178.599C222.453 188.318 214.568 196.203 204.844 196.203Z" fill="#718EF4"/>
<path d="M287.391 270.37H213.88V202.875H287.391V270.37Z" fill="#B4DAEF"/>
<path d="M296.51 350.224H225.255C211.219 350.224 199.844 338.849 199.844 324.823V322.542C199.844 308.516 211.219 297.141 225.255 297.141H296.51C310.547 297.141 321.922 308.516 321.922 322.542V324.823C321.922 338.849 310.547 350.224 296.51 350.224Z" fill="#718EF4"/>
<path d="M258.828 225.188C258.828 230.771 254.302 235.302 248.713 235.302C243.13 235.302 238.599 230.771 238.599 225.188C238.599 219.604 243.13 215.078 248.713 215.078C254.302 215.078 258.828 219.604 258.828 225.188Z" fill="white"/>
<path d="M268.286 256.047C267.318 246.094 258.927 238.318 248.713 238.318C238.505 238.318 230.115 246.094 229.146 256.047H268.286Z" fill="white"/>
<path d="M432.464 233.734H328.599C319.307 233.734 311.776 226.203 311.776 216.911V213.192C311.776 203.906 319.307 196.374 328.599 196.374H432.464C441.755 196.374 449.287 203.906 449.287 213.192V216.911C449.287 226.203 441.755 233.734 432.464 233.734Z" stroke="#B4DAEF" stroke-width="0.801117" stroke-miterlimit="10" stroke-linecap="round" stroke-linejoin="round"/>
<path d="M335.104 207.099L336.662 211.885H341.698C343.037 211.885 343.594 213.599 342.51 214.385L338.438 217.349L339.99 222.135C340.406 223.406 338.948 224.469 337.865 223.682L333.787 220.719L329.714 223.682C328.63 224.469 327.172 223.406 327.589 222.135L329.146 217.349L325.068 214.385C323.984 213.599 324.537 211.885 325.88 211.885H330.917L332.474 207.099C332.891 205.823 334.688 205.823 335.104 207.099Z" fill="#B4DAEF"/>
<path d="M360.542 207.099L362.099 211.885H367.141C368.479 211.885 369.036 213.599 367.953 214.385L363.875 217.344L365.432 222.135C365.844 223.406 364.391 224.463 363.307 223.682L359.229 220.719L355.151 223.682C354.068 224.463 352.615 223.406 353.026 222.135L354.583 217.344L350.505 214.385C349.422 213.599 349.979 211.885 351.318 211.885H356.359L357.917 207.099C358.328 205.823 360.13 205.823 360.542 207.099Z" fill="#B4DAEF"/>
<path d="M382.187 207.094L383.745 211.885H388.786C390.125 211.885 390.682 213.599 389.599 214.385L385.521 217.344L387.078 222.135C387.495 223.406 386.031 224.464 384.948 223.677L380.875 220.719L376.797 223.677C375.713 224.464 374.26 223.406 374.672 222.135L376.229 217.344L372.151 214.385C371.068 213.599 371.625 211.885 372.963 211.885H378.005L379.562 207.094C379.974 205.823 381.776 205.823 382.187 207.094Z" fill="#B4DAEF"/>
<path d="M405.349 207.094L406.906 211.885H411.943C413.281 211.885 413.839 213.599 412.755 214.385L408.677 217.344L410.234 222.135C410.651 223.406 409.193 224.464 408.109 223.677L404.031 220.719L399.958 223.677C398.875 224.464 397.417 223.406 397.828 222.135L399.385 217.344L395.313 214.385C394.229 213.599 394.787 211.885 396.125 211.885H401.162L402.719 207.094C403.135 205.823 404.932 205.823 405.349 207.094Z" fill="#B4DAEF"/>
<path d="M429.016 207.094L430.568 211.885H435.609C436.948 211.885 437.505 213.599 436.422 214.385L432.344 217.344L433.901 222.135C434.318 223.406 432.859 224.464 431.776 223.677L427.698 220.719L423.62 223.677C422.536 224.464 421.083 223.406 421.495 222.135L423.052 217.344L418.979 214.385C417.896 213.599 418.448 211.885 419.786 211.885H424.828L426.385 207.094C426.797 205.823 428.599 205.823 429.016 207.094Z" fill="#B4DAEF"/>
<path d="M121.083 217.667C121.083 225.542 114.698 231.927 106.818 231.927C98.9426 231.927 92.552 225.542 92.552 217.667C92.552 209.792 98.9426 203.406 106.818 203.406C114.698 203.406 121.083 209.792 121.083 217.667Z" fill="#F9C6B7"/>
<path d="M96.6094 217.667C96.6094 212.031 101.182 207.464 106.818 207.464C112.458 207.464 117.026 212.031 117.026 217.667" stroke="#231F20" stroke-width="0.801137" stroke-miterlimit="10" stroke-linecap="round" stroke-linejoin="round"/>
<path d="M362.359 218.109C362.656 217.25 362.964 216.365 363.568 215.687C364.281 214.896 365.318 214.484 366.313 214.104C374.537 210.964 382.76 207.818 390.984 204.677C392.542 204.083 394.432 203.526 395.766 204.531C397.943 206.182 396.162 209.641 394.141 211.479C390.526 214.776 386.339 217.437 381.828 219.318C380.771 219.755 379.646 220.187 378.943 221.083C378.156 222.083 378.052 223.437 377.943 224.703C377.26 232.161 374.88 239.677 369.896 245.271C366.734 248.828 351.448 258.641 352.349 248.115C352.75 243.38 355.542 238.13 357.073 233.646C358.833 228.469 360.599 223.286 362.359 218.109Z" fill="#F9C6B7"/>
<path d="M369.886 245.281C374.865 239.688 377.25 232.167 377.927 224.714C378.042 223.448 378.146 222.094 378.927 221.094C379.636 220.198 380.761 219.766 381.813 219.323C386.328 217.448 390.516 214.781 394.131 211.49C396.146 209.651 397.927 206.188 395.75 204.542C394.422 203.536 392.526 204.094 390.969 204.688L379.469 209.729" stroke="#231F20" stroke-width="0.801116" stroke-miterlimit="10" stroke-linecap="round" stroke-linejoin="round"/>
<path d="M166.734 345.271C172.859 336.401 178.984 327.536 185.104 318.667C187.115 315.76 189.188 312.786 192.104 310.786C195.245 308.635 199.083 307.807 202.818 307.026C206.755 306.198 230.547 299.151 230.406 304.552C230.312 308.271 223.432 309.583 220.948 310.156C215.901 311.323 210.771 312.505 206.333 315.292C213.885 312.917 221.089 311.01 228.901 309.682C230.141 309.474 231.427 309.281 232.646 309.589C233.865 309.896 235.016 310.844 235.161 312.094C235.292 313.177 234.635 314.234 233.76 314.896C232.891 315.552 231.818 315.885 230.776 316.208C223.781 318.354 216.792 320.505 209.797 322.651C216.557 320.719 222.714 319.521 229.583 318.047C231.609 317.609 233.802 317.214 235.698 318.052C236.401 318.359 237.068 318.891 237.25 319.635C237.521 320.729 236.672 321.776 235.766 322.437C233.99 323.729 231.823 324.339 229.708 324.927C223.917 326.531 218.12 328.141 212.323 329.745C218.917 328.141 226.099 326.776 232.87 326.323C234.557 326.208 236.776 326.578 237.042 328.245C237.286 329.833 235.469 330.88 233.953 331.422C225.927 334.276 217.734 336.646 209.432 338.516C201.312 351.281 194.266 360.37 180.807 367.281L166.734 345.271Z" fill="#F9C6B7"/>
<path d="M252.578 165.089C256.348 160.719 260.812 156.948 265.755 153.959C268.302 152.417 272.13 151.318 273.828 153.766C274.723 155.052 274.546 156.802 275.119 158.261C276.27 161.183 280.171 162.089 283.182 161.183C286.192 160.282 288.619 158.11 291.244 156.381C296.77 152.719 305.416 151.537 309.124 157.037C310.015 158.36 310.515 159.948 311.598 161.125C314.807 164.62 320.562 162.516 324.708 160.203C329.234 157.683 333.765 155.162 338.291 152.641C340.531 151.391 342.859 150.12 345.406 149.917C347.963 149.714 350.812 150.896 351.718 153.292C352.223 154.625 352.088 156.183 352.817 157.412C354.041 159.459 357.041 159.558 359.27 158.709C361.499 157.86 363.484 156.328 365.827 155.896" stroke="#B4DAEF" stroke-width="0.801084" stroke-miterlimit="10" stroke-linecap="round" stroke-linejoin="round"/>
<path d="M384.839 398.849H282.734C272.839 398.849 264.812 390.828 264.812 380.932C264.812 371.036 272.839 363.016 282.734 363.016H384.839C394.74 363.016 402.766 371.036 402.766 380.932C402.766 390.828 394.74 398.849 384.839 398.849Z" fill="#6F6FF7"/>
<path d="M277.433 384.214C279.86 381.714 282.386 379.151 285.615 377.839C288.839 376.526 292.98 376.797 295.276 379.417C296.256 380.537 296.823 381.979 297.87 383.031C300.235 385.412 304.266 385.063 307.266 383.552C310.261 382.047 312.719 379.62 315.683 378.057C318.657 376.495 322.641 375.99 325.131 378.24C326.985 379.917 327.735 382.865 330.079 383.734C332.303 384.563 334.636 383.052 336.651 381.797C339.756 379.854 343.151 378.37 346.683 377.401C347.412 377.203 348.183 377.026 348.907 377.229C350.469 377.672 351.021 379.547 352.047 380.802C353.943 383.136 357.568 383.234 360.37 382.136C363.172 381.037 365.506 379.016 368.157 377.594C369.146 377.063 370.308 376.609 371.37 376.979C373.375 377.677 373.511 380.615 375.209 381.891C376.813 383.099 379.094 382.37 380.954 381.604C384.881 379.979 388.808 378.359 392.735 376.734" stroke="#231F20" stroke-width="0.801093" stroke-miterlimit="10" stroke-linecap="round" stroke-linejoin="round"/>
<path d="M158.891 231.927L138.047 232.958L163.13 238.963L158.891 231.927Z" fill="#F4A592"/>
<path d="M108.906 207.677L114.161 222.417" stroke="#231F20" stroke-width="0.801137" stroke-miterlimit="10" stroke-linecap="round" stroke-linejoin="round"/>
<path d="M121.083 345.224L127.469 321.698" stroke="#231F20" stroke-width="0.801137" stroke-miterlimit="10" stroke-linecap="round" stroke-linejoin="round"/>
<path d="M114.396 365.167L96.6094 374.349" stroke="#231F20" stroke-width="0.801137" stroke-miterlimit="10" stroke-linecap="round" stroke-linejoin="round"/>
<path d="M461.292 347.38H338.427C337.5 347.38 336.745 346.63 336.745 345.698V262.12C336.745 261.193 337.5 260.438 338.427 260.438H461.292C462.224 260.438 462.979 261.193 462.979 262.12V345.698C462.979 346.63 462.224 347.38 461.292 347.38Z" fill="#97B2FF"/>
<path d="M343.479 268.865L341.651 268.87L341.641 266.657L343.469 266.651L343.479 268.865Z" stroke="#B4DAEF" stroke-width="0.801133" stroke-miterlimit="10" stroke-linecap="round" stroke-linejoin="round"/>
<path d="M349.287 268.839L345.183 268.849L345.177 266.641L349.282 266.625L349.287 268.839Z" stroke="#B4DAEF" stroke-width="0.801185" stroke-miterlimit="10" stroke-linecap="round" stroke-linejoin="round"/>
<path d="M357.411 268.823L351.364 268.844L351.359 266.63L357.406 266.614L357.411 268.823Z" stroke="#B4DAEF" stroke-width="0.801111" stroke-miterlimit="10" stroke-linecap="round" stroke-linejoin="round"/>
<path d="M390.682 268.718L384.146 268.739L384.135 266.526L390.677 266.505L390.682 268.718Z" stroke="#B4DAEF" stroke-width="0.801138" stroke-miterlimit="10" stroke-linecap="round" stroke-linejoin="round"/>
<path d="M375.819 268.766L363.959 268.802L363.949 266.594L375.813 266.558L375.819 268.766Z" stroke="#B4DAEF" stroke-width="0.80112" stroke-miterlimit="10" stroke-linecap="round" stroke-linejoin="round"/>
<path d="M362.631 268.802L358.475 268.818L358.465 266.604L362.626 266.594L362.631 268.802Z" stroke="#B4DAEF" stroke-width="0.801125" stroke-miterlimit="10" stroke-linecap="round" stroke-linejoin="round"/>
<path d="M382.157 268.74L378 268.755L377.99 266.542L382.151 266.531L382.157 268.74Z" stroke="#B4DAEF" stroke-width="0.801163" stroke-miterlimit="10" stroke-linecap="round" stroke-linejoin="round"/>
<path d="M425.473 268.609L422.681 268.615L422.676 266.406L425.463 266.396L425.473 268.609Z" stroke="#B4DAEF" stroke-width="0.801152" stroke-miterlimit="10" stroke-linecap="round" stroke-linejoin="round"/>
<path d="M446.515 268.547L427.281 268.604L427.275 266.391L446.51 266.334L446.515 268.547Z" stroke="#B4DAEF" stroke-width="0.801154" stroke-miterlimit="10" stroke-linecap="round" stroke-linejoin="round"/>
<path d="M420.839 268.63L410.193 268.662L410.188 266.448L420.834 266.417L420.839 268.63Z" stroke="#B4DAEF" stroke-width="0.80113" stroke-miterlimit="10" stroke-linecap="round" stroke-linejoin="round"/>
<path d="M406.824 268.667L393.105 268.708L393.1 266.495L406.819 266.453L406.824 268.667Z" stroke="#B4DAEF" stroke-width="0.801161" stroke-miterlimit="10" stroke-linecap="round" stroke-linejoin="round"/>
<path d="M343.505 274.547L341.677 274.552L341.672 272.343L343.5 272.333L343.505 274.547Z" stroke="#B4DAEF" stroke-width="0.80116" stroke-miterlimit="10" stroke-linecap="round" stroke-linejoin="round"/>
<path d="M355.839 274.51L345.193 274.542L345.188 272.333L355.833 272.302L355.839 274.51Z" stroke="#B4DAEF" stroke-width="0.801159" stroke-miterlimit="10" stroke-linecap="round" stroke-linejoin="round"/>
<path d="M390.708 274.401L367.369 274.474L367.364 272.266L390.703 272.193L390.708 274.401Z" stroke="#B4DAEF" stroke-width="0.801163" stroke-miterlimit="10" stroke-linecap="round" stroke-linejoin="round"/>
<path d="M365.136 274.489L358.48 274.51L358.475 272.302L365.131 272.281L365.136 274.489Z" stroke="#B4DAEF" stroke-width="0.801106" stroke-miterlimit="10" stroke-linecap="round" stroke-linejoin="round"/>
<path d="M433.943 274.276L393.12 274.401L393.109 272.187L433.937 272.068L433.943 274.276Z" stroke="#B4DAEF" stroke-width="0.801135" stroke-miterlimit="10" stroke-linecap="round" stroke-linejoin="round"/>
<path d="M343.505 280.302L341.677 280.307L341.672 278.099L343.5 278.093L343.505 280.302Z" stroke="#B4DAEF" stroke-width="0.801109" stroke-miterlimit="10" stroke-linecap="round" stroke-linejoin="round"/>
<path d="M350.537 280.271L345.214 280.286L345.208 278.078L350.531 278.057L350.537 280.271Z" stroke="#B4DAEF" stroke-width="0.801169" stroke-miterlimit="10" stroke-linecap="round" stroke-linejoin="round"/>
<path d="M386.397 280.167L372.699 280.208L372.694 278L386.386 277.958L386.397 280.167Z" stroke="#B4DAEF" stroke-width="0.801138" stroke-miterlimit="10" stroke-linecap="round" stroke-linejoin="round"/>
<path d="M370.944 280.209L367.391 280.219L367.386 278.011L370.938 278L370.944 280.209Z" stroke="#B4DAEF" stroke-width="0.801166" stroke-miterlimit="10" stroke-linecap="round" stroke-linejoin="round"/>
<path d="M365.162 280.234L352.412 280.271L352.406 278.062L365.156 278.021L365.162 280.234Z" stroke="#B4DAEF" stroke-width="0.80114" stroke-miterlimit="10" stroke-linecap="round" stroke-linejoin="round"/>
<path d="M417.323 280.078L403.407 280.12L403.402 277.912L417.313 277.865L417.323 280.078Z" stroke="#B4DAEF" stroke-width="0.801115" stroke-miterlimit="10" stroke-linecap="round" stroke-linejoin="round"/>
<path d="M393.772 280.146L388.063 280.161L388.053 277.953L393.766 277.932L393.772 280.146Z" stroke="#B4DAEF" stroke-width="0.80115" stroke-miterlimit="10" stroke-linecap="round" stroke-linejoin="round"/>
<path d="M401.525 280.115L395.811 280.13L395.806 277.922L401.514 277.901L401.525 280.115Z" stroke="#B4DAEF" stroke-width="0.801179" stroke-miterlimit="10" stroke-linecap="round" stroke-linejoin="round"/>
<path d="M343.558 292.302L341.73 292.307L341.725 290.099L343.553 290.094L343.558 292.302Z" stroke="#B4DAEF" stroke-width="0.801161" stroke-miterlimit="10" stroke-linecap="round" stroke-linejoin="round"/>
<path d="M355.892 292.266L345.246 292.297L345.24 290.089L355.886 290.058L355.892 292.266Z" stroke="#B4DAEF" stroke-width="0.801165" stroke-miterlimit="10" stroke-linecap="round" stroke-linejoin="round"/>
<path d="M390.761 292.162L380.115 292.193L380.11 289.985L390.756 289.948L390.761 292.162Z" stroke="#B4DAEF" stroke-width="0.801155" stroke-miterlimit="10" stroke-linecap="round" stroke-linejoin="round"/>
<path d="M378.082 292.193L367.431 292.224L367.426 290.016L378.077 289.984L378.082 292.193Z" stroke="#B4DAEF" stroke-width="0.8012" stroke-miterlimit="10" stroke-linecap="round" stroke-linejoin="round"/>
<path d="M365.218 292.235L358.562 292.256L358.551 290.042L365.207 290.026L365.218 292.235Z" stroke="#B4DAEF" stroke-width="0.801169" stroke-miterlimit="10" stroke-linecap="round" stroke-linejoin="round"/>
<path d="M353.417 325.75L351.589 325.755L351.579 323.547L353.407 323.542L353.417 325.75Z" stroke="#B4DAEF" stroke-width="0.801169" stroke-miterlimit="10" stroke-linecap="round" stroke-linejoin="round"/>
<path d="M365.751 325.714L355.1 325.745L355.095 323.532L365.741 323.506L365.751 325.714Z" stroke="#B4DAEF" stroke-width="0.801147" stroke-miterlimit="10" stroke-linecap="round" stroke-linejoin="round"/>
<path d="M400.62 325.61L389.969 325.641L389.964 323.427L400.615 323.396L400.62 325.61Z" stroke="#B4DAEF" stroke-width="0.801149" stroke-miterlimit="10" stroke-linecap="round" stroke-linejoin="round"/>
<path d="M387.939 325.641L377.293 325.672L377.282 323.464L387.933 323.432L387.939 325.641Z" stroke="#B4DAEF" stroke-width="0.801195" stroke-miterlimit="10" stroke-linecap="round" stroke-linejoin="round"/>
<path d="M375.046 325.693L368.39 325.708L368.385 323.5L375.036 323.479L375.046 325.693Z" stroke="#B4DAEF" stroke-width="0.801111" stroke-miterlimit="10" stroke-linecap="round" stroke-linejoin="round"/>
<path d="M456.453 325.438L438.797 325.49L438.786 323.281L456.443 323.224L456.453 325.438Z" stroke="#B4DAEF" stroke-width="0.80116" stroke-miterlimit="10" stroke-linecap="round" stroke-linejoin="round"/>
<path d="M435.38 325.506L417.724 325.558V323.349L435.375 323.292L435.38 325.506Z" stroke="#B4DAEF" stroke-width="0.80112" stroke-miterlimit="10" stroke-linecap="round" stroke-linejoin="round"/>
<path d="M414.041 325.573L403.01 325.604L403 323.396L414.036 323.365L414.041 325.573Z" stroke="#B4DAEF" stroke-width="0.801086" stroke-miterlimit="10" stroke-linecap="round" stroke-linejoin="round"/>
<path d="M343.589 297.99L341.761 297.995L341.75 295.787L343.578 295.782L343.589 297.99Z" stroke="#B4DAEF" stroke-width="0.801185" stroke-miterlimit="10" stroke-linecap="round" stroke-linejoin="round"/>
<path d="M347.928 297.98L345.266 297.99L345.261 295.776L347.922 295.771L347.928 297.98Z" stroke="#B4DAEF" stroke-width="0.80116" stroke-miterlimit="10" stroke-linecap="round" stroke-linejoin="round"/>
<path d="M386.125 297.864L375.479 297.896L375.474 295.687L386.12 295.651L386.125 297.864Z" stroke="#B4DAEF" stroke-width="0.801178" stroke-miterlimit="10" stroke-linecap="round" stroke-linejoin="round"/>
<path d="M373.766 297.901L358.74 297.948L358.735 295.734L373.761 295.688L373.766 297.901Z" stroke="#B4DAEF" stroke-width="0.801173" stroke-miterlimit="10" stroke-linecap="round" stroke-linejoin="round"/>
<path d="M356.504 297.953L349.848 297.974L349.843 295.766L356.494 295.745L356.504 297.953Z" stroke="#B4DAEF" stroke-width="0.801165" stroke-miterlimit="10" stroke-linecap="round" stroke-linejoin="round"/>
<path d="M343.589 303.745L341.755 303.75L341.75 301.542L343.578 301.537L343.589 303.745Z" stroke="#B4DAEF" stroke-width="0.801134" stroke-miterlimit="10" stroke-linecap="round" stroke-linejoin="round"/>
<path d="M355.922 303.708L345.271 303.739L345.266 301.531L355.912 301.5L355.922 303.708Z" stroke="#B4DAEF" stroke-width="0.801133" stroke-miterlimit="10" stroke-linecap="round" stroke-linejoin="round"/>
<path d="M387.807 303.609L378.88 303.635L378.875 301.421L387.802 301.395L387.807 303.609Z" stroke="#B4DAEF" stroke-width="0.801158" stroke-miterlimit="10" stroke-linecap="round" stroke-linejoin="round"/>
<path d="M369.958 303.662L364.099 303.677L364.088 301.469L369.953 301.448L369.958 303.662Z" stroke="#B4DAEF" stroke-width="0.801165" stroke-miterlimit="10" stroke-linecap="round" stroke-linejoin="round"/>
<path d="M377.338 303.64L371.473 303.656L371.468 301.448L377.328 301.427L377.338 303.64Z" stroke="#B4DAEF" stroke-width="0.801155" stroke-miterlimit="10" stroke-linecap="round" stroke-linejoin="round"/>
<path d="M361.73 303.682L358.594 303.692L358.584 301.484L361.719 301.474L361.73 303.682Z" stroke="#B4DAEF" stroke-width="0.80118" stroke-miterlimit="10" stroke-linecap="round" stroke-linejoin="round"/>
<path d="M455.599 303.406L443.896 303.443L443.886 301.229L455.594 301.193L455.599 303.406Z" stroke="#B4DAEF" stroke-width="0.801131" stroke-miterlimit="10" stroke-linecap="round" stroke-linejoin="round"/>
<path d="M343.614 309.432L341.786 309.437L341.776 307.229L343.604 307.219L343.614 309.432Z" stroke="#B4DAEF" stroke-width="0.801161" stroke-miterlimit="10" stroke-linecap="round" stroke-linejoin="round"/>
<path d="M355.948 309.396L345.297 309.427L345.292 307.213L355.937 307.187L355.948 309.396Z" stroke="#B4DAEF" stroke-width="0.801152" stroke-miterlimit="10" stroke-linecap="round" stroke-linejoin="round"/>
<path d="M392.204 309.286L367.475 309.359L367.469 307.151L392.194 307.073L392.204 309.286Z" stroke="#B4DAEF" stroke-width="0.801147" stroke-miterlimit="10" stroke-linecap="round" stroke-linejoin="round"/>
<path d="M365.245 309.369L358.589 309.396L358.584 307.182L365.235 307.161L365.245 309.369Z" stroke="#B4DAEF" stroke-width="0.801116" stroke-miterlimit="10" stroke-linecap="round" stroke-linejoin="round"/>
<path d="M353.578 321.031L351.744 321.036L351.739 318.828L353.567 318.823L353.578 321.031Z" stroke="#B4DAEF" stroke-width="0.801104" stroke-miterlimit="10" stroke-linecap="round" stroke-linejoin="round"/>
<path d="M365.937 320.99L355.286 321.021L355.281 318.807L365.926 318.776L365.937 320.99Z" stroke="#B4DAEF" stroke-width="0.801185" stroke-miterlimit="10" stroke-linecap="round" stroke-linejoin="round"/>
<path d="M395.479 320.901L390.151 320.917L390.146 318.703L395.468 318.687L395.479 320.901Z" stroke="#B4DAEF" stroke-width="0.801177" stroke-miterlimit="10" stroke-linecap="round" stroke-linejoin="round"/>
<path d="M388.099 320.927L377.453 320.953L377.443 318.745L388.094 318.714L388.099 320.927Z" stroke="#B4DAEF" stroke-width="0.801156" stroke-miterlimit="10" stroke-linecap="round" stroke-linejoin="round"/>
<path d="M375.234 320.964L368.578 320.984L368.568 318.776L375.224 318.755L375.234 320.964Z" stroke="#B4DAEF" stroke-width="0.80114" stroke-miterlimit="10" stroke-linecap="round" stroke-linejoin="round"/>
<path d="M436.046 320.776L420.463 320.823L420.452 318.609L436.041 318.562L436.046 320.776Z" stroke="#B4DAEF" stroke-width="0.801181" stroke-miterlimit="10" stroke-linecap="round" stroke-linejoin="round"/>
<path d="M418.548 320.828L405.98 320.864L405.975 318.656L418.543 318.619L418.548 320.828Z" stroke="#B4DAEF" stroke-width="0.801167" stroke-miterlimit="10" stroke-linecap="round" stroke-linejoin="round"/>
<path d="M403.844 320.875L396.943 320.896L396.938 318.687L403.834 318.667L403.844 320.875Z" stroke="#B4DAEF" stroke-width="0.801145" stroke-miterlimit="10" stroke-linecap="round" stroke-linejoin="round"/>
<path d="M350.806 286.287L348.978 286.292L348.968 284.079L350.796 284.073L350.806 286.287Z" stroke="#B4DAEF" stroke-width="0.801113" stroke-miterlimit="10" stroke-linecap="round" stroke-linejoin="round"/>
<path d="M360.421 286.25L352.51 286.271L352.5 284.063L360.411 284.037L360.421 286.25Z" stroke="#B4DAEF" stroke-width="0.801159" stroke-miterlimit="10" stroke-linecap="round" stroke-linejoin="round"/>
<path d="M381.385 286.187L370.739 286.219L370.734 284.01L381.379 283.974L381.385 286.187Z" stroke="#B4DAEF" stroke-width="0.801157" stroke-miterlimit="10" stroke-linecap="round" stroke-linejoin="round"/>
<path d="M369.265 286.218L361.994 286.239L361.983 284.031L369.259 284.005L369.265 286.218Z" stroke="#B4DAEF" stroke-width="0.801179" stroke-miterlimit="10" stroke-linecap="round" stroke-linejoin="round"/>
<path d="M343.667 331.104L341.839 331.115L341.829 328.901L343.662 328.896L343.667 331.104Z" stroke="#B4DAEF" stroke-width="0.801128" stroke-miterlimit="10" stroke-linecap="round" stroke-linejoin="round"/>
<path d="M350.671 331.089L345.348 331.104L345.343 328.896L350.666 328.875L350.671 331.089Z" stroke="#B4DAEF" stroke-width="0.801106" stroke-miterlimit="10" stroke-linecap="round" stroke-linejoin="round"/>
<path d="M386.552 330.974L372.859 331.016L372.854 328.807L386.546 328.765L386.552 330.974Z" stroke="#B4DAEF" stroke-width="0.801144" stroke-miterlimit="10" stroke-linecap="round" stroke-linejoin="round"/>
<path d="M371.078 331.026L367.526 331.036L367.521 328.828L371.068 328.812L371.078 331.026Z" stroke="#B4DAEF" stroke-width="0.801124" stroke-miterlimit="10" stroke-linecap="round" stroke-linejoin="round"/>
<path d="M365.296 331.047L352.546 331.083L352.541 328.875L365.286 328.839L365.296 331.047Z" stroke="#B4DAEF" stroke-width="0.801073" stroke-miterlimit="10" stroke-linecap="round" stroke-linejoin="round"/>
<path d="M417.506 330.875L403.595 330.917L403.589 328.708L417.501 328.661L417.506 330.875Z" stroke="#B4DAEF" stroke-width="0.801197" stroke-miterlimit="10" stroke-linecap="round" stroke-linejoin="round"/>
<path d="M393.932 330.953L388.223 330.969L388.213 328.755L393.926 328.74L393.932 330.953Z" stroke="#B4DAEF" stroke-width="0.801156" stroke-miterlimit="10" stroke-linecap="round" stroke-linejoin="round"/>
<path d="M401.657 330.932L395.948 330.948L395.943 328.74L401.651 328.719L401.657 330.932Z" stroke="#B4DAEF" stroke-width="0.801128" stroke-miterlimit="10" stroke-linecap="round" stroke-linejoin="round"/>
<path d="M343.718 341.083L341.89 341.088L341.885 338.88L343.713 338.87L343.718 341.083Z" stroke="#B4DAEF" stroke-width="0.801197" stroke-miterlimit="10" stroke-linecap="round" stroke-linejoin="round"/>
<path d="M356.052 341.047L345.406 341.078L345.401 338.87L356.047 338.833L356.052 341.047Z" stroke="#B4DAEF" stroke-width="0.80118" stroke-miterlimit="10" stroke-linecap="round" stroke-linejoin="round"/>
<path d="M390.896 340.948L380.25 340.979L380.245 338.771L390.89 338.734L390.896 340.948Z" stroke="#B4DAEF" stroke-width="0.801126" stroke-miterlimit="10" stroke-linecap="round" stroke-linejoin="round"/>
<path d="M378.214 340.984L367.568 341.016L367.563 338.802L378.209 338.771L378.214 340.984Z" stroke="#B4DAEF" stroke-width="0.80116" stroke-miterlimit="10" stroke-linecap="round" stroke-linejoin="round"/>
<path d="M365.35 341.021L358.693 341.042L358.688 338.833L365.344 338.812L365.35 341.021Z" stroke="#B4DAEF" stroke-width="0.801145" stroke-miterlimit="10" stroke-linecap="round" stroke-linejoin="round"/>
<path d="M455.734 340.745L449.078 340.766L449.067 338.552L455.724 338.537L455.734 340.745Z" stroke="#B4DAEF" stroke-width="0.801165" stroke-miterlimit="10" stroke-linecap="round" stroke-linejoin="round"/>
<path d="M446.728 340.776L429.077 340.828L429.067 338.62L446.723 338.563L446.728 340.776Z" stroke="#B4DAEF" stroke-width="0.801136" stroke-miterlimit="10" stroke-linecap="round" stroke-linejoin="round"/>
<path d="M425.687 340.839L408.03 340.891L408.025 338.682L425.676 338.63L425.687 340.839Z" stroke="#B4DAEF" stroke-width="0.801142" stroke-miterlimit="10" stroke-linecap="round" stroke-linejoin="round"/>
<path d="M404.35 340.906L393.313 340.937L393.308 338.729L404.344 338.692L404.35 340.906Z" stroke="#B4DAEF" stroke-width="0.801123" stroke-miterlimit="10" stroke-linecap="round" stroke-linejoin="round"/>
<path d="M343.693 336.224L341.865 336.229L341.86 334.016L343.688 334.011L343.693 336.224Z" stroke="#B4DAEF" stroke-width="0.801152" stroke-miterlimit="10" stroke-linecap="round" stroke-linejoin="round"/>
<path d="M353.308 336.188L345.397 336.214L345.391 334L353.303 333.979L353.308 336.188Z" stroke="#B4DAEF" stroke-width="0.801207" stroke-miterlimit="10" stroke-linecap="round" stroke-linejoin="round"/>
<path d="M374.246 336.135L363.6 336.167L363.595 333.958L374.241 333.922L374.246 336.135Z" stroke="#B4DAEF" stroke-width="0.80112" stroke-miterlimit="10" stroke-linecap="round" stroke-linejoin="round"/>
<path d="M362.126 336.167L354.855 336.188L354.844 333.979L362.121 333.959L362.126 336.167Z" stroke="#B4DAEF" stroke-width="0.801136" stroke-miterlimit="10" stroke-linecap="round" stroke-linejoin="round"/>
<path d="M343.614 314.656L341.786 314.661L341.776 312.453L343.604 312.448L343.614 314.656Z" stroke="#B4DAEF" stroke-width="0.801127" stroke-miterlimit="10" stroke-linecap="round" stroke-linejoin="round"/>
<path d="M355.973 314.61L345.328 314.646L345.317 312.432L355.963 312.401L355.973 314.61Z" stroke="#B4DAEF" stroke-width="0.801188" stroke-miterlimit="10" stroke-linecap="round" stroke-linejoin="round"/>
<path d="M378.135 314.547L367.49 314.578L367.479 312.37L378.13 312.339L378.135 314.547Z" stroke="#B4DAEF" stroke-width="0.801145" stroke-miterlimit="10" stroke-linecap="round" stroke-linejoin="round"/>
<path d="M365.297 314.578L358.64 314.599L358.63 312.391L365.286 312.37L365.297 314.578Z" stroke="#B4DAEF" stroke-width="0.801201" stroke-miterlimit="10" stroke-linecap="round" stroke-linejoin="round"/>
</svg>
