<svg width="235" height="28" viewBox="0 0 235 28" fill="none" xmlns="http://www.w3.org/2000/svg">
<path d="M204.365 1L191 27.9983H195.812L204.365 11.4251L208.91 19.4444H213.721L204.365 1Z" fill="#5959D8"/>
<path d="M212.652 27.9983L210.781 23.7213H215.86L217.731 27.9983H212.652Z" fill="#5959D8"/>
<path d="M0 0L5.17374 3.38449V6.76898V13.538V20.307V27.0759L0 20.307V13.538V0Z" fill="#5959D8"/>
<path d="M6 21.8279L16 27.0016H11H6V21.8279Z" fill="#5959D8"/>
<path d="M81 0H96.6937V5.17374H88.8468H84.9234L81 0Z" fill="#5959D8"/>
<path d="M81 27.0762H96.6937V21.9024H88.8468H84.9234L81 27.0762Z" fill="#5959D8"/>
<rect x="81" y="10.8633" width="15.6937" height="5.17374" fill="#5959D8"/>
<path d="M136.607 24.5096C138.339 25.7617 140.343 26.5859 142.455 26.9147C144.567 27.2436 146.727 27.0677 148.758 26.4016C150.788 25.7354 152.633 24.5979 154.139 23.082C155.646 21.5662 156.773 19.7152 157.427 17.6804C158.081 15.6456 158.244 13.4848 157.902 11.375C157.561 9.26513 156.724 7.2661 155.462 5.54148C154.199 3.81686 152.547 2.41565 150.639 1.4525C148.731 0.489358 146.622 -0.00834925 144.484 0.000105934L144.502 4.33772C145.954 4.33197 147.387 4.67021 148.684 5.32476C149.981 5.9793 151.104 6.93156 151.962 8.1036C152.82 9.27564 153.388 10.6342 153.62 12.068C153.852 13.5019 153.741 14.9703 153.297 16.3531C152.853 17.736 152.087 18.9939 151.063 20.0241C150.039 21.0542 148.786 21.8273 147.406 22.28C146.025 22.7327 144.558 22.8522 143.122 22.6287C141.687 22.4053 140.325 21.8452 139.148 20.9942L136.607 24.5096Z" fill="#5959D8"/>
<path d="M141 11.5708V5.56636L144.104 4V13.4852L141 11.5708Z" fill="#5959D8"/>
<path fill-rule="evenodd" clip-rule="evenodd" d="M126.523 0H122.071V19.9402L117.478 14.2137L113.476 9.22357L111.475 6.72853L106.001 0.0757L106.001 7.01888L122.009 26.9792L122.071 26.9296V27.0096H126.523V0Z" fill="#5959D8"/>
<path d="M110.484 27.1634H106V20.0063L110.484 25.0076V27.1634Z" fill="#5959D8"/>
<rect x="54" width="4.70697" height="27.0759" fill="#5959D8"/>
<path d="M68.793 3.5V0L55 17.5L57.5 22L68.793 6.5V3.5Z" fill="#5959D8"/>
<path fill-rule="evenodd" clip-rule="evenodd" d="M63.3263 13.9641L62.5 13L60 17L60.5905 17.6947L63.3263 13.9641ZM63.0336 20.5689L65.7563 16.799L68.5 20L74.5 27H68.5L63.0336 20.5689Z" fill="#5959D8"/>
<path d="M47 13.5C47 10.83 46.2082 8.21987 44.7248 5.9998C43.2414 3.77974 41.133 2.04941 38.6662 1.02763C36.1994 0.00584325 33.485 -0.261502 30.8663 0.259399C28.2475 0.780299 25.8421 2.06605 23.9541 3.95406C22.066 5.84207 20.7803 8.24754 20.2594 10.8663C19.7385 13.485 20.0058 16.1994 21.0276 18.6662C22.0494 21.133 23.7797 23.2414 25.9998 24.7248C28.2199 26.2082 30.83 27 33.5 27V22.6447C31.6913 22.6447 29.9233 22.1084 28.4195 21.1035C26.9156 20.0987 25.7435 18.6705 25.0514 16.9995C24.3593 15.3286 24.1782 13.4899 24.531 11.716C24.8839 9.94206 25.7548 8.31263 27.0337 7.03372C28.3126 5.75481 29.9421 4.88386 31.716 4.53101C33.4899 4.17816 35.3286 4.35926 36.9995 5.0514C38.6705 5.74354 40.0987 6.91564 41.1035 8.41948C42.1084 9.92332 42.6447 11.6913 42.6447 13.5H47Z" fill="#5959D8"/>
<path fill-rule="evenodd" clip-rule="evenodd" d="M172 0H168V27H172.707V15.6643C172.947 15.7363 173.192 15.7969 173.439 15.8462C174.194 15.9963 174.963 16.0361 175.721 15.9675L178.756 27.7007L183.313 26.5222L180.114 14.1523C180.703 13.6628 181.222 13.0884 181.652 12.4446C182.531 11.1289 183 9.58228 183 8C183 6.41772 182.531 4.87109 181.652 3.55542C180.773 2.23975 179.523 1.21436 178.062 0.608887C177.242 0.269287 176.376 0.0705566 175.5 0.015625V0H175.017H174.983H172.707H172ZM175 11C176.657 11 178 9.65685 178 8C178 6.34315 176.657 5 175 5C173.343 5 172 6.34315 172 8C172 9.65685 173.343 11 175 11Z" fill="#5959D8"/>
<path d="M204.365 1L191 27.9983H195.812L204.365 11.4251L208.91 19.4444H213.721L204.365 1Z" fill="#5959D8"/>
<path d="M212.652 27.9983L210.781 23.7213H215.86L217.731 27.9983H212.652Z" fill="#5959D8"/>
<path d="M0 0L5.17374 3.38449V6.76898V13.538V20.307V27.0759L0 20.307V13.538V0Z" fill="#5959D8"/>
<path d="M6 21.8279L16 27.0016H11H6V21.8279Z" fill="#5959D8"/>
<path d="M81 0H96.6937V5.17374H88.8468H84.9234L81 0Z" fill="#5959D8"/>
<path d="M81 27.0762H96.6937V21.9024H88.8468H84.9234L81 27.0762Z" fill="#5959D8"/>
<rect x="81" y="10.8633" width="15.6937" height="5.17374" fill="#5959D8"/>
<path d="M136.607 24.5096C138.339 25.7617 140.343 26.5859 142.455 26.9147C144.567 27.2436 146.727 27.0677 148.758 26.4016C150.788 25.7354 152.633 24.5979 154.139 23.082C155.646 21.5662 156.773 19.7152 157.427 17.6804C158.081 15.6456 158.244 13.4848 157.902 11.375C157.561 9.26513 156.724 7.2661 155.462 5.54148C154.199 3.81686 152.547 2.41565 150.639 1.4525C148.731 0.489358 146.622 -0.00834925 144.484 0.000105934L144.502 4.33772C145.954 4.33197 147.387 4.67021 148.684 5.32476C149.981 5.9793 151.104 6.93156 151.962 8.1036C152.82 9.27564 153.388 10.6342 153.62 12.068C153.852 13.5019 153.741 14.9703 153.297 16.3531C152.853 17.736 152.087 18.9939 151.063 20.0241C150.039 21.0542 148.786 21.8273 147.406 22.28C146.025 22.7327 144.558 22.8522 143.122 22.6287C141.687 22.4053 140.325 21.8452 139.148 20.9942L136.607 24.5096Z" fill="#5959D8"/>
<path d="M141 11.5708V5.56636L144.104 4V13.4852L141 11.5708Z" fill="#5959D8"/>
<path fill-rule="evenodd" clip-rule="evenodd" d="M126.523 0H122.071V19.9402L117.478 14.2137L113.476 9.22357L111.475 6.72853L106.001 0.0757L106.001 7.01888L122.009 26.9792L122.071 26.9296V27.0096H126.523V0Z" fill="#5959D8"/>
<path d="M110.484 27.1634H106V20.0063L110.484 25.0076V27.1634Z" fill="#5959D8"/>
<rect x="54" width="4.70697" height="27.0759" fill="#5959D8"/>
<path d="M68.793 3.5V0L55 17.5L57.5 22L68.793 6.5V3.5Z" fill="#5959D8"/>
<path fill-rule="evenodd" clip-rule="evenodd" d="M63.3263 13.9641L62.5 13L60 17L60.5905 17.6947L63.3263 13.9641ZM63.0336 20.5689L65.7563 16.799L68.5 20L74.5 27H68.5L63.0336 20.5689Z" fill="#5959D8"/>
<path d="M47 13.5C47 10.83 46.2082 8.21987 44.7248 5.9998C43.2414 3.77974 41.133 2.04941 38.6662 1.02763C36.1994 0.00584325 33.485 -0.261502 30.8663 0.259399C28.2475 0.780299 25.8421 2.06605 23.9541 3.95406C22.066 5.84207 20.7803 8.24754 20.2594 10.8663C19.7385 13.485 20.0058 16.1994 21.0276 18.6662C22.0494 21.133 23.7797 23.2414 25.9998 24.7248C28.2199 26.2082 30.83 27 33.5 27V22.6447C31.6913 22.6447 29.9233 22.1084 28.4195 21.1035C26.9156 20.0987 25.7435 18.6705 25.0514 16.9995C24.3593 15.3286 24.1782 13.4899 24.531 11.716C24.8839 9.94206 25.7548 8.31263 27.0337 7.03372C28.3126 5.75481 29.9421 4.88386 31.716 4.53101C33.4899 4.17816 35.3286 4.35926 36.9995 5.0514C38.6705 5.74354 40.0987 6.91564 41.1035 8.41948C42.1084 9.92332 42.6447 11.6913 42.6447 13.5H47Z" fill="#5959D8"/>
<rect x="230" y="23" width="5" height="5" fill="#5959D8"/>
</svg>
