<svg width="50" height="40" viewBox="0 0 30 23" fill="none" xmlns="http://www.w3.org/2000/svg">
<g clip-path="url(#clip0_310_712)">
<path d="M6.8182 22.5059V10.9149L3.22348 7.62623L0 5.80127V20.4604C0 21.5922 0.916992 22.5059 2.04551 22.5059H6.8182Z" fill="#4285F4"/>
<path d="M23.1816 22.5059H27.9543C29.0863 22.5059 29.9998 21.5888 29.9998 20.4604V5.80139L26.3488 7.89166L23.1816 10.9149V22.5059Z" fill="#34A853"/>
<path d="M6.81824 10.9149L6.3291 6.38592L6.81824 2.05127L15 8.18768L23.1818 2.05127L23.729 6.15189L23.1818 10.9149L15 17.0513L6.81824 10.9149Z" fill="#EA4335"/>
<path d="M23.1816 2.05121V10.9148L29.9998 5.80122V3.07391C29.9998 0.544417 27.1123 -0.897576 25.0909 0.619417L23.1816 2.05121Z" fill="#FBBC04"/>
<path d="M0 5.80114L3.13582 8.15309L6.8182 10.9147V2.05114L4.90898 0.619348C2.88398 -0.89776 0 0.544348 0 3.07372V5.80102V5.80114Z" fill="#C5221F"/>
</g>
<defs>
<clipPath id="clip0_310_712">
<rect width="30" height="22.6172" fill="white"/>
</clipPath>
</defs>
</svg>
