<svg width="50" height="40" viewBox="0 0 30 25" fill="none" xmlns="http://www.w3.org/2000/svg">
<g clip-path="url(#clip0_310_718)">
<path d="M30 3.0442C28.8766 3.55219 27.685 3.88563 26.4649 4.03343C27.7358 3.25592 28.7116 2.0247 29.1711 0.557716C27.963 1.28952 26.6412 1.80512 25.2628 2.08224C24.14 0.861305 22.5405 0.0982666 20.7702 0.0982666C17.3711 0.0982666 14.6152 2.91119 14.6152 6.38056C14.6152 6.87303 14.6696 7.35245 14.7745 7.81238C9.6593 7.5503 5.12414 5.04922 2.0884 1.24827C1.55871 2.17614 1.2552 3.25544 1.2552 4.40664C1.2552 6.58631 2.34188 8.50915 3.99328 9.63583C3.01588 9.60458 2.05998 9.33512 1.20539 8.84994C1.20504 8.87626 1.20504 8.90257 1.20504 8.92901C1.20504 11.9729 3.3266 14.5121 6.14215 15.0893C5.2358 15.3409 4.28511 15.3777 3.3627 15.197C4.14586 17.6929 6.41895 19.5092 9.11215 19.56C7.0057 21.2449 4.35176 22.2493 1.46824 22.2493C0.971367 22.2493 0.481523 22.2196 0 22.1615C2.72379 23.9441 5.95898 24.9841 9.43477 24.9841C20.7559 24.9841 26.9466 15.4111 26.9466 7.10915C26.9466 6.83666 26.9407 6.56573 26.9288 6.29635C28.1337 5.40722 29.1737 4.30594 30 3.0442Z" fill="#55ACEE"/>
</g>
<defs>
<clipPath id="clip0_310_718">
<rect width="30" height="25" fill="white"/>
</clipPath>
</defs>
</svg>
